<svg width="121" height="33" viewBox="0 0 121 33" fill="none" xmlns="http://www.w3.org/2000/svg">
<g clip-path="url(#clip0_96_100)">
<path d="M16.7143 7.93218C16.6463 7.84218 16.4083 7.67218 16.0003 7.42218C15.5923 7.17218 15.0823 6.91218 14.4703 6.64018C13.8583 6.36818 13.1893 6.13018 12.4643 5.92618C11.7565 5.72463 11.0242 5.62166 10.2883 5.62018C8.2933 5.62018 7.2963 6.28918 7.2963 7.62618C7.2963 8.03418 7.4033 8.37418 7.6193 8.64618C7.8343 8.91818 8.1513 9.16218 8.5713 9.37718C8.9903 9.59218 9.5173 9.79118 10.1513 9.97218L11.5573 10.3652L12.3623 10.5842C13.5183 10.9012 14.5603 11.2472 15.4903 11.6212C16.4193 11.9952 17.2073 12.4602 17.8533 13.0152C18.4978 13.5684 19.0091 14.2599 19.3493 15.0382C19.6993 15.8312 19.8763 16.7832 19.8763 17.8942C19.8763 19.2542 19.6213 20.4042 19.1113 21.3452C18.6013 22.2852 17.9263 23.0452 17.0883 23.6232C16.2483 24.2012 15.2863 24.6202 14.1983 24.8812C13.1103 25.1412 11.9883 25.2722 10.8323 25.2722C8.99051 25.2617 7.15931 24.9928 5.3923 24.4732C4.5083 24.2132 3.6523 23.9012 2.8253 23.5382C2.02325 23.1896 1.25472 22.7686 0.529297 22.2802L2.9773 17.4182C3.0673 17.5312 3.3623 17.7472 3.8613 18.0642C4.3593 18.3812 4.9773 18.6992 5.7143 19.0162C6.4503 19.3332 7.2723 19.6162 8.1793 19.8662C9.0853 20.1162 10.0033 20.2402 10.9333 20.2402C12.9053 20.2402 13.8913 19.6402 13.8913 18.4382C13.8913 17.9852 13.7433 17.6112 13.4493 17.3162C13.1543 17.0212 12.7463 16.7552 12.2253 16.5172C11.7365 16.2984 11.2341 16.1113 10.7213 15.9572L9.0193 15.4622L8.0433 15.1742C6.9323 14.8342 5.9693 14.4662 5.1533 14.0692C4.3373 13.6722 3.6633 13.2132 3.1303 12.6922C2.60718 12.1853 2.20105 11.5703 1.9403 10.8902C1.6793 10.2102 1.5493 9.41718 1.5493 8.51018C1.5493 7.24018 1.7873 6.11918 2.2633 5.14418C2.72219 4.19125 3.38359 3.35 4.2013 2.67918C5.0418 1.99738 6.00566 1.48371 7.0403 1.16618C8.1163 0.826176 9.2553 0.656176 10.4573 0.656176C11.2953 0.656176 12.1233 0.736176 12.9393 0.894176C13.7553 1.05318 14.5373 1.25718 15.2853 1.50618C16.0333 1.75618 16.7303 2.03918 17.3753 2.35618C18.0223 2.67318 18.6173 2.99118 19.1613 3.30818L16.7143 7.93218ZM40.1383 25.0002H34.6983V14.9702C34.6983 13.8142 34.4713 12.9642 34.0183 12.4202C33.5643 11.8762 32.9413 11.6042 32.1483 11.6042C31.8303 11.6042 31.4853 11.6782 31.1113 11.8252C30.7179 11.984 30.351 12.2018 30.0233 12.4712C29.661 12.7654 29.3353 13.1022 29.0533 13.4742C28.7563 13.864 28.5264 14.3006 28.3733 14.7662V25.0002H22.9333V0.180176H28.3733V10.1422C29.004 9.10217 29.9027 8.2508 30.9753 7.67718C32.0513 7.09918 33.2353 6.81018 34.5283 6.81018C35.7293 6.81018 36.6983 7.02018 37.4353 7.43918C38.1713 7.85918 38.7383 8.39118 39.1353 9.03718C39.5313 9.68318 39.7983 10.4082 39.9343 11.2132C40.0703 12.0182 40.1383 12.8052 40.1383 13.5762V25.0002ZM52.4783 25.3402C50.9593 25.3402 49.6053 25.0902 48.4153 24.5922C47.2253 24.0932 46.2223 23.4192 45.4053 22.5692C44.5909 21.7212 43.9604 20.7141 43.5533 19.6112C43.133 18.4857 42.9196 17.2936 42.9233 16.0922C42.9233 14.8682 43.1333 13.6952 43.5533 12.5732C43.9607 11.4701 44.5916 10.4631 45.4063 9.61518C46.2223 8.76518 47.2253 8.08518 48.4153 7.57518C49.6053 7.06518 50.9593 6.81018 52.4783 6.81018C53.9973 6.81018 55.3453 7.06518 56.5243 7.57518C57.7033 8.08518 58.7003 8.76518 59.5163 9.61518C60.3324 10.4653 60.9684 11.4714 61.3863 12.5732C61.8172 13.6962 62.0362 14.8893 62.0323 16.0922C62.036 17.2936 61.8226 18.4857 61.4023 19.6112C60.9952 20.7141 60.3647 21.7212 59.5503 22.5692C58.7343 23.4192 57.7303 24.0932 56.5403 24.5922C55.3503 25.0912 53.9973 25.3402 52.4783 25.3402ZM48.4993 16.0922C48.4993 17.4972 48.8733 18.6252 49.6213 19.4752C50.3693 20.3252 51.3213 20.7502 52.4773 20.7502C53.0176 20.756 53.5522 20.6398 54.0413 20.4102C54.5173 20.1832 54.9313 19.8662 55.2813 19.4582C55.6492 19.0216 55.9321 18.5199 56.1153 17.9792C56.3241 17.3722 56.4276 16.734 56.4213 16.0922C56.4213 14.6872 56.0473 13.5592 55.2993 12.7092C54.5513 11.8592 53.6103 11.4342 52.4773 11.4342C51.9384 11.4298 51.4051 11.5432 50.9145 11.7664C50.424 11.9895 49.9881 12.3171 49.6373 12.7262C49.2701 13.1629 48.9879 13.6646 48.8053 14.2052C48.5965 14.8121 48.493 15.4503 48.4993 16.0922ZM76.2753 11.8082C74.9603 11.8312 73.7703 12.0462 72.7053 12.4542C71.6403 12.8622 70.8693 13.4742 70.3933 14.2902V25.0002H64.9533V7.15018H69.9513V10.7542C70.5633 9.55318 71.3513 8.61218 72.3143 7.93218C73.2773 7.25218 74.3033 6.90118 75.3913 6.87818H75.9353C76.0483 6.87818 76.1623 6.88918 76.2753 6.91218V11.8082ZM90.3493 24.0482C89.5129 24.3961 88.6556 24.6914 87.7823 24.9322C86.8193 25.2042 85.8503 25.3402 84.8753 25.3402C84.1953 25.3402 83.5553 25.2552 82.9553 25.0852C82.3767 24.9269 81.8377 24.6489 81.3733 24.2692C80.9203 23.8952 80.5633 23.4022 80.3033 22.7902C80.0413 22.1782 79.9113 21.4412 79.9113 20.5802V11.2642H77.6333V7.15018H79.9113V1.47218H85.3513V7.15018H88.9893V11.2642H85.3513V18.7102C85.3513 19.3002 85.4983 19.7242 85.7933 19.9852C86.0883 20.2452 86.4623 20.3762 86.9153 20.3762C87.3233 20.3762 87.7423 20.3082 88.1733 20.1722C88.6033 20.0362 88.9783 19.8892 89.2953 19.7302L90.3493 24.0482ZM92.6263 0.180176H98.0663V18.6422C98.0663 20.0022 98.6443 20.6822 99.8003 20.6822C100.072 20.6822 100.372 20.6422 100.701 20.5632C101.03 20.4832 101.331 20.3652 101.602 20.2062L102.316 24.2862C101.636 24.6032 100.854 24.8532 99.9703 25.0342C99.0863 25.2152 98.2593 25.3062 97.4883 25.3062C95.9243 25.3062 94.7233 24.8982 93.8843 24.0822C93.0453 23.2662 92.6263 22.0872 92.6263 20.5462V0.180176ZM104.082 27.6862C104.536 27.8452 104.961 27.9582 105.357 28.0262C105.711 28.0902 106.069 28.1243 106.428 28.1282C107.086 28.1282 107.596 27.9012 107.958 27.4482C108.321 26.9952 108.65 26.1782 108.944 25.0002L102.144 7.15018H107.754L111.902 20.3422L115.472 7.15018H120.572L113.772 27.8902C113.323 29.3256 112.43 30.5815 111.222 31.4772C109.998 32.3952 108.548 32.8542 106.87 32.8542C106.409 32.8535 105.948 32.8137 105.493 32.7352C105.012 32.651 104.539 32.5201 104.083 32.3442L104.082 27.6862Z" fill="#FBFBFB"/>
</g>
<defs>
<clipPath id="clip0_96_100">
<rect width="121" height="33" fill="white"/>
</clipPath>
</defs>
</svg>
